# xmcd CD database file
#
# Track frame offsets:
#	150
#	24190
#	45525
#
# Disc length: 927 seconds
#
# Revision: 0
# Processed by: cddbd v1.5.1PL2 Copyright (c) Steve Scherf et al.
# Submitted via: CDex 1.51
#
DISCID=16039d03
DTITLE=ＬｅｍｏｎＳｕｇａｒ　ｖｓ　ＴＯｏ’Ｓ - ＭＡＧＩＣ　ＩＮ　ＴＩＭＥ〜エルセーヌ　ＴＶ　ＣＭイメージソング〜
DYEAR=1995
DGENRE=JPop
TTITLE0=ＭＡＧＩＣ　ＩＮ　ＴＩＭＥ
TTITLE1=Ｂｅｌｉｅｖｅ
TTITLE2=ＭＡＧＩＣ　ＩＮ　ＴＩＭＥ（オリジナル・カラオケ）
EXTD=YEAR: 1995/7/1
EXTT0=
EXTT1=
EXTT2=
PLAYORDER=
